#define 1657830231475_width 26
#define 1657830231475_height 15
static char 1657830231475_bits[] = {
  0xFF, 0xFF, 0xFF, 0x03, 0xFF, 0x7F, 0xFE, 0x03, 0xFF, 0x7F, 0xFE, 0x03, 
  0xFF, 0x77, 0xFA, 0x03, 0x7F, 0x7F, 0xFE, 0x03, 0xFF, 0xFF, 0xFF, 0x03, 
  0xFF, 0xFF, 0xFF, 0x03, 0xFF, 0x7F, 0xFF, 0x03, 0xFF, 0x7F, 0xFF, 0x03, 
  0xFF, 0xFF, 0xFF, 0x03, 0xFF, 0xFF, 0xFF, 0x03, 0xEF, 0x7F, 0xFF, 0x03, 
  0xFF, 0x7F, 0xFF, 0x03, 0xFF, 0x7B, 0xFE, 0x03, 0xFF, 0x7F, 0xFE, 0x03, 
  };
