#define 1657830221925_width 25
#define 1657830221925_height 15
static char 1657830221925_bits[] = {
  0xFF, 0xFF, 0xFF, 0x01, 0xFF, 0xFB, 0xE8, 0x01, 0xFF, 0x6F, 0xFF, 0x01, 
  0x0F, 0xFE, 0xFF, 0x01, 0xEF, 0xFF, 0xDF, 0x01, 0xFF, 0xFF, 0xFF, 0x01, 
  0xFF, 0xFF, 0xFF, 0x01, 0xFF, 0xFF, 0xFF, 0x01, 0xFF, 0xFF, 0xFF, 0x01, 
  0xFF, 0xFF, 0xFF, 0x01, 0xFF, 0xFF, 0xEF, 0x01, 0xFF, 0xFF, 0xDF, 0x01, 
  0x0F, 0xFF, 0xFF, 0x01, 0xFF, 0x6D, 0xFF, 0x01, 0xFF, 0xFB, 0xE0, 0x01, 
  };
